<?xml version="1.0" encoding="utf-8"?>
<svg id="master-artboard" viewBox="0 0 361 107" version="1.1" xmlns="http://www.w3.org/2000/svg" x="0px" y="0px" width="361px" height="107px" enable-background="new 0 0 1400 980"><rect id="ee-background" x="0" y="0" width="361" height="107" style="fill: white; fill-opacity: 0; pointer-events: none;"/>

<g id="tardis">
	<g transform="matrix(1, 0, 0, 1, -119.87354278564453, -169.91253662109375)">
		<g>
			<g>
				<path d="M 321.29998779296875 195.5 L 301.20001220703125 195.5 L 281 195.5 L 281 272.70001220703125 L 301.20001220703125 272.70001220703125 L 321.29998779296875 272.70001220703125 Z" fill="#6ED6FF"/>
			</g>
			<g>
				<path fill="#183580" d="M323,274.4h-43.7v-80.5H323V274.4z M282.7,271h36.9v-73.8h-36.9V271z"/>
			</g>
		</g>
		<g>
			<g>
				<path d="M 301.200012 273.700012 L 301.200012 194.5" fill="#FFFFFF"/>
			</g>
			<g>
				<path d="M 299.399994 194.5 H 302.799994 V 273.699997 H 299.399994 V 194.5 Z" fill="#183580"/>
			</g>
		</g>
		<g>
			<g>
				<path d="M 323 211.199997 L 279.299988 211.199997" fill="#FFFFFF"/>
			</g>
			<g>
				<path d="M 279.299988 209.5 H 322.999989 V 212.9 H 279.299988 V 209.5 Z" fill="#183580"/>
			</g>
		</g>
		<g>
			<path fill="#11265C" d="M281.5,193.6c0-10.8,8.8-19.6,19.6-19.6s19.6,8.8,19.6,19.6"/>
			<path fill="#11265C" d="M323,193.6h-4.4c0-9.6-7.8-17.5-17.5-17.5c-9.6,0-17.5,7.8-17.5,17.5h-4.4c0-12,9.8-21.8,21.8-21.8&#10;&#9;&#9;&#9;&#9;C313.2,171.8,323,181.6,323,193.6z"/>
		</g>
	</g>
	<g transform="matrix(1.2932143211364744, 0, 0, 1.2932143211364744, -207.98443603515625, -235.26998901367182)">
		
		<g>
			<path d="M 439.1000061035156 264.29998779296875 L 161.89999389648438 264.29998779296875 L 161.89999389648438 238.10000610351562 L 301.20001220703125 222.89999389648438 L 439.1000061035156 238.10000610351562 Z" fill="#132B66"/>
		</g>
		
		
		
	</g>
	
	
	
	
	
	
</g>

</svg>